<svg xmlns="http://www.w3.org/2000/svg" viewBox="0 0 117.47 43.52"><defs><style>.cls-1,.cls-2{fill:#231f20;}.cls-2{font-size:30px;font-family:FranklinGothic-Heavy, Franklin Gothic Heavy;font-weight:800;}.cls-3{letter-spacing:-0.04em;}.cls-4{letter-spacing:-0.04em;}</style></defs><g id="Layer_2" data-name="Layer 2"><g id="Layer_1-2" data-name="Layer 1"><path class="cls-1" d="M82.19.54,27.94,0c-2.09.38-4.17.78-6.23,1.22-2.61.57-5.21,1.11-7.83,1.58,18.43,4.26,25,4.29,25.74,2.44.37-1-.77-2.3-.08-3.23C41,0,48.25,3.72,53.22,5.29c9.09,2.86,18.66,1.13,26-1.06C80.24,3,81.23,1.79,82.19.54Z"/><path class="cls-1" d="M102.71.55,90.32.39c-1.11,2-2.24,4-3.41,6,1.33-.19,3-.51,5.33-1,5.86-1.28,9-2.34,12.14-3.17C103.83,1.66,103.27,1.1,102.71.55Z"/><path class="cls-1" d="M114.33,14.16l-5.9,24.53a16.91,16.91,0,0,0,6.82-6.11c1.85-3,2.15-6,2.21-13.08,0-2.42,0-5.19-.06-8.24C116.39,12.24,115.36,13.2,114.33,14.16Z"/><path class="cls-1" d="M95.56,43.47l.43.05c1.09-.92,2.19-1.84,3.29-2.74s2.33-1.88,3.5-2.82l-40.66.89-.51.23C72.92,40.59,84.24,42,95.56,43.47Z"/><path class="cls-1" d="M0,23a13.9,13.9,0,0,0,.1,3c1.35,2,2.72,4,4.09,6.05l1-15.12q-1.47-2.8-3-5.58A76.28,76.28,0,0,0,0,23Z"/><path class="cls-1" d="M42.57,38.62c-6,1.26-10.72-.48-16.38-2.33a5.68,5.68,0,0,1-1.31-.63l-2.05.49c-3.18.71-6.38,1.42-9.62,1.81-.53.07-1.68,0-2.72.16,3.49,2.7,10.37,3.27,36,1.92,4.3-.23,7.84-.44,10.21-.59L46.64,37.7C45.29,38,43.94,38.33,42.57,38.62Z"/><text class="cls-2" transform="translate(8.59 31.57)"><tspan class="cls-3">T</tspan><tspan class="cls-4" x="13.02" y="0">A</tspan><tspan x="31.01" y="0">TTOO</tspan></text></g></g></svg>