<svg id="Layer_1" data-name="Layer 1" xmlns="http://www.w3.org/2000/svg" viewBox="0 0 52.67 17.06"><defs><style>.cls-1,.cls-2{fill:#231f20;}.cls-2{stroke:#231f20;stroke-miterlimit:10;}</style></defs><path class="cls-1" d="M47.83,56.35a34.46,34.46,0,0,1-11.11-2.88l-8.55,1.19A36.61,36.61,0,0,0,48.59,59.4a33.21,33.21,0,0,0,4.88-.76c.82-.87,1.64-1.75,2.45-2.64A33.48,33.48,0,0,1,47.83,56.35Z" transform="translate(-26.93 -53.29)"/><path class="cls-1" d="M47.83,56.35a37,37,0,0,1-11.18-2.73l.09,0-8.52,1.41.13-.74A48.21,48.21,0,0,0,34.3,56.9a39.58,39.58,0,0,0,6.24,1.66,36.44,36.44,0,0,0,6.43.58,32.64,32.64,0,0,0,6.46-.67l-.09.05,2.51-2.58.08.14A36,36,0,0,1,47.83,56.35Zm0,0a30.73,30.73,0,0,0,8.07-.44l.25,0-.17.19L53.6,58.77l0,0-.06,0a33.93,33.93,0,0,1-6.52,1,31.16,31.16,0,0,1-6.61-.34A33.82,33.82,0,0,1,34,57.81,37.58,37.58,0,0,1,28,55l-1.05-.6,1.18-.13,8.59-1h0l0,0A31.58,31.58,0,0,0,47.83,56.35Z" transform="translate(-26.93 -53.29)"/><path class="cls-2" d="M58.57,69.79h2l-.69-13.29C59.52,57.82,57.19,66.46,58.57,69.79Z" transform="translate(-26.93 -53.29)"/><path class="cls-2" d="M65.42,56.49c-.37,1.32-2.68,9.9-1.34,13.25h2Z" transform="translate(-26.93 -53.29)"/><path class="cls-1" d="M72,60.88h0Z" transform="translate(-26.93 -53.29)"/><path class="cls-1" d="M72,60.88c-2.79.21-5.58.3-8.36.38s-5.58.11-8.37.12v-1c2.79,0,5.58,0,8.37.12l4.18.14C69.24,60.72,70.63,60.77,72,60.88Zm0,0c-1.4.11-2.79.16-4.18.25l-4.18.13c-2.79.1-5.58.11-8.37.12v-1c2.79,0,5.58,0,8.37.12S69.24,60.67,72,60.88Z" transform="translate(-26.93 -53.29)"/><path class="cls-2" d="M69.7,69.69h.64c-1.69-1.21-1.22-4.57,1.42-4.57A2.28,2.28,0,0,1,74,66.58a2,2,0,0,1,.24-.46,3,3,0,0,0-.18-.3,3,3,0,0,0-4.34-.26,2.75,2.75,0,0,0,0,4.13Z" transform="translate(-26.93 -53.29)"/><path class="cls-2" d="M76.31,65c2.65,0,3.11,3.38,1.4,4.58h.56l0,0a3,3,0,0,0,.26-3.7,3,3,0,0,0-4.34-.26,3.25,3.25,0,0,0-.38.44,1.89,1.89,0,0,1,.24.47A2.27,2.27,0,0,1,76.31,65Z" transform="translate(-26.93 -53.29)"/><path class="cls-2" d="M50.11,69.81H51.9c-1.92-.68-1.76-4.13.48-4.34l0-.13a2.39,2.39,0,0,0-3.07.84,2.76,2.76,0,0,0,.14,3.06A2.24,2.24,0,0,0,50.11,69.81Z" transform="translate(-26.93 -53.29)"/><path class="cls-2" d="M54.42,69.82l-.31-3.41-.73,3.29.91.14Z" transform="translate(-26.93 -53.29)"/><path class="cls-2" d="M44.33,62.92a47.19,47.19,0,0,1-6-1.6l-.07,0q-.49-.14-1-.3l-.19,3.56c2.81,1.61,5.48,3.4,8.11,5.27h.52l-1-6.82Z" transform="translate(-26.93 -53.29)"/><path class="cls-2" d="M36.88,67.93l-.1,1.89h3.1Q38.39,68.85,36.88,67.93Z" transform="translate(-26.93 -53.29)"/></svg>