<svg id="Layer_1" data-name="Layer 1" xmlns="http://www.w3.org/2000/svg" viewBox="0 0 117.47 43.52"><defs><style>.cls-1{font-size:30px;font-family:FranklinGothic-Heavy, Franklin Gothic Heavy;font-weight:800;}.cls-1,.cls-4{fill:#231f20;}.cls-2{letter-spacing:-0.04em;}.cls-3{letter-spacing:-0.04em;}</style></defs><text class="cls-1" transform="translate(8.59 31.57)"><tspan class="cls-2">T</tspan><tspan class="cls-3" x="13.02" y="0">A</tspan><tspan x="31.01" y="0">TTOO</tspan></text><path class="cls-4" d="M99.08,54.84,44.83,54.3c-2.09.38-4.17.77-6.23,1.22-2.61.57-5.21,1.1-7.83,1.58,18.42,4.26,25,4.29,25.74,2.44.37-1-.77-2.3-.09-3.23,1.49-2,8.71,1.7,13.69,3.27,9.09,2.87,18.66,1.14,26-1.06C97.13,57.31,98.12,56.08,99.08,54.84Z" transform="translate(-16.89 -54.3)"/><path class="cls-4" d="M119.59,54.84l-12.39-.15q-1.65,3-3.4,6c1.33-.18,3-.5,5.33-1,5.86-1.28,9-2.34,12.14-3.17Q120.45,55.67,119.59,54.84Z" transform="translate(-16.89 -54.3)"/><path class="cls-4" d="M131.22,68.45,125.31,93a16.75,16.75,0,0,0,6.82-6.12c1.86-3.05,2.16-6,2.22-13.07,0-2.42,0-5.19-.06-8.24C133.28,66.54,132.25,67.5,131.22,68.45Z" transform="translate(-16.89 -54.3)"/><path class="cls-4" d="M112.45,97.76l.43.06c1.09-.92,2.18-1.84,3.29-2.75s2.32-1.88,3.49-2.81L79,93.14l-.51.24Q95.45,95.63,112.45,97.76Z" transform="translate(-16.89 -54.3)"/><path class="cls-4" d="M16.92,77.25a14.49,14.49,0,0,0,.11,3c1.35,2,2.72,4,4.09,6l1-15.12c-1-1.87-2-3.72-3-5.57A77.3,77.3,0,0,0,16.92,77.25Z" transform="translate(-16.89 -54.3)"/><path class="cls-4" d="M59.46,92.91c-6,1.27-10.72-.48-16.38-2.33A5.66,5.66,0,0,1,41.77,90l-2.05.49c-3.19.71-6.38,1.41-9.62,1.81-.54.06-1.68,0-2.72.15,3.49,2.7,10.37,3.28,36,1.92,4.29-.22,7.84-.44,10.21-.59L63.53,92C62.18,92.31,60.83,92.63,59.46,92.91Z" transform="translate(-16.89 -54.3)"/></svg>